
            <svg id="trend-chart" width="660" height="400" title="Stack Overflow Trends Chart" version="1.1" xmlns="http://www.w3.org/2000/svg"><g></g><g class="chart-area" transform="translate(100, 20)"><g transform="translate(0,300)" fill="none" font-size="10" font-family="sans-serif" text-anchor="middle"><path class="domain" stroke="#000" d="M0.5,6V0.5H410.5V6"></path><g class="tick" opacity="1" transform="translate(40.80602941058749,0)"><line stroke="#000" y2="6" x1="0.5" x2="0.5"></line><text fill="#000" y="9" x="0.5" dy="0.71em" style="font-size: 12px;">2010</text></g><g class="tick" opacity="1" transform="translate(98.30797063744286,0)"><line stroke="#000" y2="6" x1="0.5" x2="0.5"></line><text fill="#000" y="9" x="0.5" dy="0.71em" style="font-size: 12px;">2012</text></g><g class="tick" opacity="1" transform="translate(155.88868164680076,0)"><line stroke="#000" y2="6" x1="0.5" x2="0.5"></line><text fill="#000" y="9" x="0.5" dy="0.71em" style="font-size: 12px;">2014</text></g><g class="tick" opacity="1" transform="translate(213.39062287365613,0)"><line stroke="#000" y2="6" x1="0.5" x2="0.5"></line><text fill="#000" y="9" x="0.5" dy="0.71em" style="font-size: 12px;">2016</text></g><g class="tick" opacity="1" transform="translate(270.9713338830141,0)"><line stroke="#000" y2="6" x1="0.5" x2="0.5"></line><text fill="#000" y="9" x="0.5" dy="0.71em" style="font-size: 12px;">2018</text></g><g class="tick" opacity="1" transform="translate(328.47327510986946,0)"><line stroke="#000" y2="6" x1="0.5" x2="0.5"></line><text fill="#000" y="9" x="0.5" dy="0.71em" style="font-size: 12px;">2020</text></g><g class="tick" opacity="1" transform="translate(386.0539861192274,0)"><line stroke="#000" y2="6" x1="0.5" x2="0.5"></line><text fill="#000" y="9" x="0.5" dy="0.71em" style="font-size: 12px;">2022</text></g></g><g class="grid-lines" transform="translate(0,300)" fill="none" font-size="10" font-family="sans-serif" text-anchor="middle"><path class="domain" stroke="#000" d="M0.5,-300V0.5H410.5V-300"></path><g class="tick" opacity="1" transform="translate(40.80602941058749,0)"><line stroke="#000" y2="-300" x1="0.5" x2="0.5" style="stroke: #ccc; fill: none;"></line></g><g class="tick" opacity="1" transform="translate(98.30797063744286,0)"><line stroke="#000" y2="-300" x1="0.5" x2="0.5" style="stroke: #ccc; fill: none;"></line></g><g class="tick" opacity="1" transform="translate(155.88868164680076,0)"><line stroke="#000" y2="-300" x1="0.5" x2="0.5" style="stroke: #ccc; fill: none;"></line></g><g class="tick" opacity="1" transform="translate(213.39062287365613,0)"><line stroke="#000" y2="-300" x1="0.5" x2="0.5" style="stroke: #ccc; fill: none;"></line></g><g class="tick" opacity="1" transform="translate(270.9713338830141,0)"><line stroke="#000" y2="-300" x1="0.5" x2="0.5" style="stroke: #ccc; fill: none;"></line></g><g class="tick" opacity="1" transform="translate(328.47327510986946,0)"><line stroke="#000" y2="-300" x1="0.5" x2="0.5" style="stroke: #ccc; fill: none;"></line></g><g class="tick" opacity="1" transform="translate(386.0539861192274,0)"><line stroke="#000" y2="-300" x1="0.5" x2="0.5" style="stroke: #ccc; fill: none;"></line></g></g><text x="205" y="360" class="axis-label x-axis-label" style="text-anchor: middle; font-weight: bold;">Year</text><g fill="none" font-size="10" font-family="sans-serif" text-anchor="end"><path class="domain" stroke="#000" d="M-6,300.5H0.5V0.5H-6"></path><g class="tick" opacity="1" transform="translate(0,300)"><line stroke="#000" x2="-6" y1="0.5" y2="0.5"></line><text fill="#000" x="-9" y="0.5" dy="0.32em" style="font-size: 12px;">0.00%</text></g><g class="tick" opacity="1" transform="translate(0,270)"><line stroke="#000" x2="-6" y1="0.5" y2="0.5"></line><text fill="#000" x="-9" y="0.5" dy="0.32em" style="font-size: 12px;">0.20%</text></g><g class="tick" opacity="1" transform="translate(0,240)"><line stroke="#000" x2="-6" y1="0.5" y2="0.5"></line><text fill="#000" x="-9" y="0.5" dy="0.32em" style="font-size: 12px;">0.40%</text></g><g class="tick" opacity="1" transform="translate(0,210)"><line stroke="#000" x2="-6" y1="0.5" y2="0.5"></line><text fill="#000" x="-9" y="0.5" dy="0.32em" style="font-size: 12px;">0.60%</text></g><g class="tick" opacity="1" transform="translate(0,180)"><line stroke="#000" x2="-6" y1="0.5" y2="0.5"></line><text fill="#000" x="-9" y="0.5" dy="0.32em" style="font-size: 12px;">0.80%</text></g><g class="tick" opacity="1" transform="translate(0,150)"><line stroke="#000" x2="-6" y1="0.5" y2="0.5"></line><text fill="#000" x="-9" y="0.5" dy="0.32em" style="font-size: 12px;">1.00%</text></g><g class="tick" opacity="1" transform="translate(0,120)"><line stroke="#000" x2="-6" y1="0.5" y2="0.5"></line><text fill="#000" x="-9" y="0.5" dy="0.32em" style="font-size: 12px;">1.20%</text></g><g class="tick" opacity="1" transform="translate(0,90)"><line stroke="#000" x2="-6" y1="0.5" y2="0.5"></line><text fill="#000" x="-9" y="0.5" dy="0.32em" style="font-size: 12px;">1.40%</text></g><g class="tick" opacity="1" transform="translate(0,60)"><line stroke="#000" x2="-6" y1="0.5" y2="0.5"></line><text fill="#000" x="-9" y="0.5" dy="0.32em" style="font-size: 12px;">1.60%</text></g><g class="tick" opacity="1" transform="translate(0,30)"><line stroke="#000" x2="-6" y1="0.5" y2="0.5"></line><text fill="#000" x="-9" y="0.5" dy="0.32em" style="font-size: 12px;">1.80%</text></g><g class="tick" opacity="1" transform="translate(0,0)"><line stroke="#000" x2="-6" y1="0.5" y2="0.5"></line><text fill="#000" x="-9" y="0.5" dy="0.32em" style="font-size: 12px;">2.00%</text></g></g><g class="grid-lines" fill="none" font-size="10" font-family="sans-serif" text-anchor="end"><path class="domain" stroke="#000" d="M410,300.5H0.5V0.5H410"></path><g class="tick" opacity="1" transform="translate(0,300)"><line stroke="#000" x2="410" y1="0.5" y2="0.5" style="stroke: #ccc; fill: none;"></line></g><g class="tick" opacity="1" transform="translate(0,270)"><line stroke="#000" x2="410" y1="0.5" y2="0.5" style="stroke: #ccc; fill: none;"></line></g><g class="tick" opacity="1" transform="translate(0,240)"><line stroke="#000" x2="410" y1="0.5" y2="0.5" style="stroke: #ccc; fill: none;"></line></g><g class="tick" opacity="1" transform="translate(0,210)"><line stroke="#000" x2="410" y1="0.5" y2="0.5" style="stroke: #ccc; fill: none;"></line></g><g class="tick" opacity="1" transform="translate(0,180)"><line stroke="#000" x2="410" y1="0.5" y2="0.5" style="stroke: #ccc; fill: none;"></line></g><g class="tick" opacity="1" transform="translate(0,150)"><line stroke="#000" x2="410" y1="0.5" y2="0.5" style="stroke: #ccc; fill: none;"></line></g><g class="tick" opacity="1" transform="translate(0,120)"><line stroke="#000" x2="410" y1="0.5" y2="0.5" style="stroke: #ccc; fill: none;"></line></g><g class="tick" opacity="1" transform="translate(0,90)"><line stroke="#000" x2="410" y1="0.5" y2="0.5" style="stroke: #ccc; fill: none;"></line></g><g class="tick" opacity="1" transform="translate(0,60)"><line stroke="#000" x2="410" y1="0.5" y2="0.5" style="stroke: #ccc; fill: none;"></line></g><g class="tick" opacity="1" transform="translate(0,30)"><line stroke="#000" x2="410" y1="0.5" y2="0.5" style="stroke: #ccc; fill: none;"></line></g><g class="tick" opacity="1" transform="translate(0,0)"><line stroke="#000" x2="410" y1="0.5" y2="0.5" style="stroke: #ccc; fill: none;"></line></g></g><g class="lines"><path class="line" d="M2.44186325757879,300L4.804956732655038,297.91420426905L7.250102064504767,291.62011173195L9.613195539581016,296.22293100555L12.055058797159804,296.17249298295L14.496922054738596,295.6841984118L16.70247596480976,295.5511616412L19.14105714811761,294.3038875968L21.50415062319386,295.29504018825L23.946013880772647,294.10040045775L26.309107355848898,296.25514917L28.750970613427686,291.1960953912L31.192833871006474,292.6544853549L33.55592734608272,291.2407541295L36.00107267793245,293.30462637195L38.364166153008696,289.17170204805L40.80602941058749,291.58400287275L43.24789266816628,289.19770451235L45.45344657823745,292.18237269825L47.89202776154529,289.1249622396L50.25512123662155,292.14385474875L52.696984494200336,288.335714415L55.060077969276584,288.06900094455L57.50194122685537,291.69303797475L59.94380448443416,286.66688614185L62.30689795951041,289.3462546167L64.75204329136014,284.8178137653L67.1151367664364,280.8928261248L69.55700002401518,283.18512733965L71.99886328159397,280.87872864795L74.20441719166513,285.0517210452L76.64299837497299,278.87323943670003L79.00609185004923,278.52250881135L81.44795510762802,276.7356992976L83.81104858270427,278.74908960314997L86.25291184028306,281.3184755127L88.69477509786185,281.5605208293L91.05786857293809,280.70529565425L93.50301390478784,281.081877267L95.86610737986408,276.6560660397L98.30797063744286,277.8638866356L100.74983389502165,273.88156402875L103.03415758759536,273.1059781998L105.4727387709032,273.1527956112L107.83583224597945,270.2243250102L110.27769550355825,261.20342300175L112.6407889786345,266.4427154499L115.08265223621329,265.455721485L117.52451549379208,262.02358415265L119.88760896886832,263.75984859675L122.33275430071805,262.692399171L124.6958477757943,262.6605041019L127.13771103337308,260.53740645195L129.57957429095188,258.68366213295L131.78512820102304,257.22929271855L134.22370938433087,260.0270008512L136.58680285940713,261.1056041778L139.02866611698593,264.6021639432L141.3917595920622,262.048038294L143.833622849641,265.4408506869L146.27548610721976,266.1175441899L148.63857958229602,264.30637573275L151.08372491414573,267.59963752634997L153.446818389222,264.91558477065L155.88868164680076,263.65427628090004L158.33054490437956,260.17748850555L160.53609881445072,265.49018468204997L162.97467999775859,260.7510919746L165.3377734728348,255.68672716065L167.7796367304136,259.45018032465L170.14273020548987,257.3326520184L172.58459346306867,256.27897824405L175.02645672064745,253.4581304625L177.3895501957237,258.42388462125L179.83469552757342,256.50575100675L182.19778900264967,257.68496651685L184.63965226022844,251.35626610095L187.08151551780725,248.17321027215002L189.2870694278784,251.3335559904L191.72565061118627,248.3611905306L194.0887440862625,245.8298765313L196.5306073438413,246.29879735039998L198.89370081891755,246.4445795424L201.33556407649635,242.05472609205L203.77742733407513,237.11653835055L206.14052080915138,243.33626965140002L208.58566614100113,240.07899063765L210.94875961607733,233.41393751430002L213.39062287365613,225.6272850204L215.83248613123493,222.3163841808L218.11680982380864,225.0746253732L220.5553910071165,220.12648561665L222.91848448219272,220.94335604775L225.36034773977153,226.77360566115L227.72344121484778,226.50749469555L230.16530447242658,226.0332850218L232.60716773000536,224.1724290129L234.9702612050816,226.40538081480003L237.41540653693136,218.3312496039L239.77850001200758,223.0127969841L242.2203632695864,215.85549766935L244.6622265271652,205.31940649544998L246.86778043723635,204.28057662075L249.30636162054415,208.5236617665L251.66945509562044,200.8885666047L254.11131835319924,191.6866303074L256.47441182827544,202.87036465034998L258.91627508585424,195.0816126756L261.35813834343304,192.18312052335L263.7212318185093,190.67665335255L266.16637715035904,200.52277819275L268.5294706254353,194.55184534275L270.9713338830141,190.01921199345L273.41319714059284,196.857553881L275.618751050664,191.4180216288L278.05733223397186,197.42824639604999L280.4204257090481,186.40406147699997L282.8622889666269,183.36979733010003L285.2253824417032,186.60989240775L287.667245699282,182.7450328161L290.1091089568607,182.59862417534998L292.472202431937,174.96684727020002L294.9173477637867,185.14268305080003L297.280441238863,179.23816534035L299.7223044964417,173.87002198890002L302.1641677540205,167.90728586865L304.36972166409174,177.4392546897L306.80830284739955,176.8176743019L309.1713963224758,167.74578247064997L311.6132595800546,160.28599576095002L313.9763530551308,165.64280107095L316.4182163127096,170.678181657L318.8600795702884,162.16606765724998L321.22317304536466,164.24258509725001L323.6683183772144,167.76656500125003L326.03141185229066,172.48071184920002L328.47327510986946,154.86972042104998L330.9151383674482,157.3717390548L333.199462060022,157.4452795743L335.6380432433298,167.86732056465002L338.00113671840603,172.9921553979L340.44299997598483,158.97729878475L342.8060934510611,155.4260853693L345.2479567086399,158.7670626681L347.6898199662187,141.6061987629L350.0529134412949,151.48197482685L352.49805877314463,154.2056074767L354.8611522482209,167.59555639245002L357.30301550579964,165.8086113357L359.74487876337844,152.18218210544998L361.9504326734496,155.6665378278L364.38901385675746,160.2594863592L366.7521073318337,157.2213896817L369.1939705894125,149.9214432555L371.55706406448877,161.22392618114998L373.9989273220675,145.47561508709998L376.4407905796463,144.0166449498L378.80388405472263,147.0591219216L381.2490293865723,155.5437277536L383.6121228616486,164.68706757720003L386.0539861192274,163.72436540955L388.4958493768062,146.9443934667L390.70140328687734,148.78015995705002L393.13998447018514,165.64661648685L395.5030779452614,155.5491686361L397.9449412028402,141.1380493746L400.30803467791645,141.36861953070002L402.74989793549526,143.18425212915L405.19176119307406,129.58816160355002L407.55485466815026,150.5691523938L410,154.20097263435" data-legend="azure" style="stroke: rgb(31, 119, 180); fill: none;"></path><path class="line" d="M2.44186325757879,296.7407836605L4.804956732655038,289.57102134465L7.250102064504767,296.40861931365L9.613195539581016,297.4819540038L12.055058797159804,291.3881092116L14.496922054738596,295.6841984118L16.70247596480976,287.39495798325L19.14105714811761,292.879859496L21.50415062319386,292.9425602823L23.946013880772647,293.02774599555L26.309107355848898,297.65946823125L28.750970613427686,292.12282219215L31.192833871006474,294.49086401625L33.55592734608272,292.07496802185L36.00107267793245,292.1230898493L38.364166153008696,294.3853269879L40.80602941058749,294.2771219535L43.24789266816628,293.92370878815L45.45344657823745,293.9196232098L47.89202776154529,296.072903031L50.25512123662155,293.3077281192L52.696984494200336,292.9471761579L55.060077969276584,294.03450047235L57.50194122685537,294.7784810127L59.94380448443416,295.3087191981L62.30689795951041,290.7667540011L64.75204329136014,295.0115673801L67.1151367664364,290.4464130624L69.55700002401518,289.4198554047L71.99886328159397,291.0767400357L74.20441719166513,289.08775636305L76.64299837497299,292.7475299559L79.00609185004923,290.98846523565L81.44795510762802,289.812365052L83.81104858270427,289.5241991001L86.25291184028306,289.60576833045L88.69477509786185,287.31363833055L91.05786857293809,288.27475659L93.50301390478784,287.84821313505L95.86610737986408,288.11054295195L98.30797063744286,283.55972867085L100.74983389502165,284.20745731965L103.03415758759536,281.32047021405L105.4727387709032,284.0084043423L107.83583224597945,280.85849464935L110.27769550355825,278.0114355885L112.6407889786345,279.9293456331L115.08265223621329,282.51462445545L117.52451549379208,283.46372282925L119.88760896886832,282.18192556005L122.33275430071805,278.28819951765L124.6958477757943,276.81607418865L127.13771103337308,276.91629843435L129.57957429095188,279.88416963045L131.78512820102304,278.9623756869L134.22370938433087,273.85026267135L136.58680285940713,276.88095353235L139.02866611698593,277.29195422775L141.3917595920622,272.98914437145L143.833622849641,273.85910500665L146.27548610721976,269.9429827491L148.63857958229602,268.72714571085L151.08372491414573,268.5400174398L153.446818389222,268.01394871305L155.88868164680076,267.00926616255L158.33054490437956,264.11156726205L160.53609881445072,260.98574563005L162.97467999775859,262.3055041737L165.3377734728348,263.65797353205L167.7796367304136,261.6771727095L170.14273020548987,258.7804462614L172.58459346306867,261.3520925829L175.02645672064745,255.45407808390001L177.3895501957237,260.34144130545L179.83469552757342,254.3355597888L182.19778900264967,250.21189867695L184.63965226022844,252.26549477205L187.08151551780725,247.90421309369998L189.2870694278784,251.57211699045L191.72565061118627,249.55469151990002L194.0887440862625,246.0738860964L196.5306073438413,240.1086886617L198.89370081891755,237.01635256424998L201.33556407649635,239.4738302715L203.77742733407513,240.3456890838L206.14052080915138,238.39136614455L208.58566614100113,230.84081521965L210.94875961607733,228.5952093081L213.39062287365613,223.54050850574998L215.83248613123493,221.4336158193L218.11680982380864,221.17460587304998L220.5553910071165,219.20398111949999L222.91848448219272,215.11392674625L225.36034773977153,212.89999507455002L227.72344121484778,212.90410896405L230.16530447242658,211.78969463745L232.60716773000536,212.1671325585L234.9702612050816,218.0266506963L237.41540653693136,214.3558395318L239.77850001200758,202.3895583579L242.2203632695864,196.06183164255L244.6622265271652,201.60135579165L246.86778043723635,196.76727808229998L249.30636162054415,200.89356867945003L251.66945509562044,193.6642278888L254.11131835319924,191.09196866985L256.47441182827544,181.55744379749999L258.91627508585424,188.9350513353L261.35813834343304,175.1790719403L263.7212318185093,175.80939041265L266.16637715035904,177.1321882002L268.5294706254353,175.79624471205L270.9713338830141,157.79975433855L273.41319714059284,167.06304689265002L275.618751050664,176.60740472429998L278.05733223397186,168.89464948440002L280.4204257090481,169.4912903751L282.8622889666269,160.86910953615L285.2253824417032,156.1951108239L287.667245699282,156.8376341748L290.1091089568607,172.59581636955L292.472202431937,161.4215890578L294.9173477637867,168.48786432420002L297.280441238863,156.81096747495L299.7223044964417,149.43806498909998L302.1641677540205,158.0418708981L304.36972166409174,154.77779176635L306.80830284739955,168.79050746234998L309.1713963224758,155.88712162845002L311.6132595800546,158.3828402544L313.9763530551308,153.06253899885002L316.4182163127096,143.837804265L318.8600795702884,154.0516506726L321.22317304536466,151.20429964845L323.6683183772144,152.0049945756L326.03141185229066,138.59766939615002L328.47327510986946,133.6790456961L330.9151383674482,143.89258472370003L333.199462060022,142.78195342695L335.6380432433298,149.22791437485L338.00113671840603,132.95707394730002L340.44299997598483,113.29264635855L342.8060934510611,97.74255377415005L345.2479567086399,93.4098103959L347.6898199662187,103.61309103375001L350.0529134412949,111.2004672798L352.49805877314463,117.98130841125001L354.8611522482209,118.67821502550001L357.30301550579964,109.21014660060001L359.74487876337844,101.33745408255001L361.9504326734496,109.28453729895L364.38901385675746,116.16013507514998L366.7521073318337,119.38053963690001L369.1939705894125,98.56643711954999L371.55706406448877,88.8508025214L373.9989273220675,98.83374710294999L376.4407905796463,95.46887478465001L378.80388405472263,91.00616328915001L381.2490293865723,108.01536875024999L383.6121228616486,90.73565773664998L386.0539861192274,87.89617094520003L388.4958493768062,87.9243897963L390.70140328687734,99.7849317831L393.13998447018514,106.96227798314999L395.5030779452614,110.09559089655002L397.9449412028402,103.7196944538L400.30803467791645,104.25401888534998L402.74989793549526,81.98786271615L405.19176119307406,84.25461948015001L407.55485466815026,102.38393977425L410,100.47542464649999" data-legend="amazon-web-services" style="stroke: rgb(255, 127, 14); fill: none;"></path><path class="line" d="M2.44186325757879,298.9135945536L4.804956732655038,300L7.250102064504767,300L9.613195539581016,300L12.055058797159804,300L14.496922054738596,300L16.70247596480976,300L19.14105714811761,300L21.50415062319386,299.41188002355L23.946013880772647,300L26.309107355848898,299.53189364625L28.750970613427686,300L31.192833871006474,300L33.55592734608272,300L36.00107267793245,300L38.364166153008696,300L40.80602941058749,300L43.24789266816628,300L45.45344657823745,300L47.89202776154529,300L50.25512123662155,299.7090316575L52.696984494200336,300L55.060077969276584,300L57.50194122685537,300L59.94380448443416,300L62.30689795951041,300L64.75204329136014,300L67.1151367664364,300L69.55700002401518,300L71.99886328159397,300L74.20441719166513,300L76.64299837497299,300L79.00609185004923,300L81.44795510762802,300L83.81104858270427,299.85034570155L86.25291184028306,300L88.69477509786185,300L91.05786857293809,300L93.50301390478784,299.8619115129L95.86610737986408,300L98.30797063744286,299.74109808945L100.74983389502165,300L103.03415758759536,300L105.4727387709032,300L107.83583224597945,300L110.27769550355825,300L112.6407889786345,299.78761212315L115.08265223621329,299.89338185655L117.52451549379208,300L119.88760896886832,300L122.33275430071805,300L124.6958477757943,299.88853881825L127.13771103337308,299.90421700605L129.57957429095188,300L131.78512820102304,300L134.22370938433087,300L136.58680285940713,299.8186741455L139.02866611698593,299.713764129L141.3917595920622,299.82904521765L143.833622849641,299.91138679665L146.27548610721976,299.90891812965L148.63857958229602,299.91813388935L151.08372491414573,299.914510917L153.446818389222,300L155.88868164680076,299.5207157313L158.33054490437956,299.0365521414L160.53609881445072,298.8375641157L162.97467999775859,298.44558780105L165.3377734728348,298.5428904483L167.7796367304136,298.4225470608L170.14273020548987,298.38187702275L172.58459346306867,298.7086618047L175.02645672064745,298.0947772704L177.3895501957237,297.90811998105L179.83469552757342,297.1064117094L182.19778900264967,295.3414642038L184.63965226022844,296.90862251865L187.08151551780725,297.0410310363L189.2870694278784,295.54686133245L191.72565061118627,296.26036356705L194.0887440862625,296.5838660877L196.5306073438413,293.4883272237L198.89370081891755,294.744922668L201.33556407649635,295.0047177666L203.77742733407513,294.22151974035L206.14052080915138,292.5421127439L208.58566614100113,293.89771899L210.94875961607733,294.48036587295L213.39062287365613,293.32231515345L215.83248613123493,292.53659476125L218.11680982380864,290.69995349985L220.5553910071165,290.92870577745L222.91848448219272,291.3756388416L225.36034773977153,290.3131003005L227.72344121484778,289.5621820173L230.16530447242658,288.5051726724L232.60716773000536,286.9354126821L234.9702612050816,285.14287030545L237.41540653693136,285.4811110407L239.77850001200758,287.3087762301L242.2203632695864,285.17617219635L244.6622265271652,283.8308027532L246.86778043723635,280.54055678565L249.30636162054415,280.670430846L251.66945509562044,278.08346681685L254.11131835319924,273.9198396114L256.47441182827544,278.18163438375L258.91627508585424,273.87711430335L261.35813834343304,273.9333540954L263.7212318185093,271.6898825457L266.16637715035904,270.6945481704L268.5294706254353,271.4498079288L270.9713338830141,263.7176781834L273.41319714059284,258.92119468395L275.618751050664,258.5478000246L278.05733223397186,259.90376904585L280.4204257090481,257.5824083064L282.8622889666269,255.0968806908L285.2253824417032,251.62148804325L287.667245699282,248.76092268735L290.1091089568607,244.7213252844L292.472202431937,246.19785549210002L294.9173477637867,241.91124200265L297.280441238863,235.3636656393L299.7223044964417,240.2435051715L302.1641677540205,246.41521973925L304.36972166409174,248.53959461175L306.80830284739955,251.73789813765L309.1713963224758,250.0529284863L311.6132595800546,236.63611666725L313.9763530551308,245.45198365575L316.4182163127096,239.1100529415L318.8600795702884,235.0846641225L321.22317304536466,232.1212925487L323.6683183772144,234.08797822050002L326.03141185229066,229.25770190565L328.47327510986946,228.67528995060002L330.9151383674482,233.33565532379998L333.199462060022,234.3549107577L335.6380432433298,236.54317714905L338.00113671840603,231.2176186842L340.44299997598483,235.88273684595L342.8060934510611,227.89558550610002L345.2479567086399,228.41338462065L347.6898199662187,227.22446970195L350.0529134412949,228.732717417L352.49805877314463,235.96261682250002L354.8611522482209,230.97345132750002L357.30301550579964,232.36321135875L359.74487876337844,227.5290075693L361.9504326734496,226.1549728422L364.38901385675746,231.79596552045L366.7521073318337,231.2087233515L369.1939705894125,232.46464946505L371.55706406448877,217.63597374749997L373.9989273220675,220.44901561335L376.4407905796463,216.39695683244997L378.80388405472263,214.2719456211L381.2490293865723,226.64914673505L383.6121228616486,229.56468479925002L386.0539861192274,224.386920981L388.4958493768062,226.11488346495003L390.70140328687734,225.2973990189L393.13998447018514,229.01263691205L395.5030779452614,225.8052841116L397.9449412028402,220.95649285965L400.30803467791645,226.7769174015L402.74989793549526,214.43433408869998L405.19176119307406,210.62480425935001L407.55485466815026,228.0056234979L410,225.7068898131" data-legend="google-cloud-platform" style="stroke: rgb(44, 160, 44); fill: none;"></path><path class="line" d="M2.44186325757879,300L4.804956732655038,300L7.250102064504767,300L9.613195539581016,300L12.055058797159804,300L14.496922054738596,300L16.70247596480976,300L19.14105714811761,300L21.50415062319386,300L23.946013880772647,300L26.309107355848898,300L28.750970613427686,300L31.192833871006474,300L33.55592734608272,300L36.00107267793245,300L38.364166153008696,300L40.80602941058749,300L43.24789266816628,300L45.45344657823745,300L47.89202776154529,300L50.25512123662155,300L52.696984494200336,300L55.060077969276584,300L57.50194122685537,300L59.94380448443416,300L62.30689795951041,300L64.75204329136014,300L67.1151367664364,300L69.55700002401518,300L71.99886328159397,300L74.20441719166513,300L76.64299837497299,300L79.00609185004923,300L81.44795510762802,300L83.81104858270427,300L86.25291184028306,300L88.69477509786185,300L91.05786857293809,300L93.50301390478784,300L95.86610737986408,300L98.30797063744286,300L100.74983389502165,300L103.03415758759536,300L105.4727387709032,300L107.83583224597945,300L110.27769550355825,300L112.6407889786345,300L115.08265223621329,300L117.52451549379208,300L119.88760896886832,300L122.33275430071805,300L124.6958477757943,300L127.13771103337308,300L129.57957429095188,299.90139298845L131.78512820102304,300L134.22370938433087,299.9119537464L136.58680285940713,299.90933707275L139.02866611698593,300L141.3917595920622,299.9145226089L143.833622849641,299.8227735933L146.27548610721976,300L148.63857958229602,299.91813388935L151.08372491414573,299.3160873357L153.446818389222,299.0887164876L155.88868164680076,298.40238577065L158.33054490437956,299.35770142755L160.53609881445072,298.40165065905L162.97467999775859,298.98963207075L165.3377734728348,298.37146579515L167.7796367304136,298.3297557114L170.14273020548987,297.7857264522L172.58459346306867,296.86389295425L175.02645672064745,298.0040523786L177.3895501957237,297.12366497385L179.83469552757342,297.4681102458L182.19778900264967,297.5736792729L184.63965226022844,297.272313987L187.08151551780725,297.75835684575L189.2870694278784,297.3758289996L191.72565061118627,297.45386455635L194.0887440862625,297.23455826145L196.5306073438413,298.47257058345L198.89370081891755,297.527022432L201.33556407649635,298.16839651455L203.77742733407513,298.13049168075L206.14052080915138,297.8112722184L208.58566614100113,297.79639852425L210.94875961607733,296.93353659615L213.39062287365613,297.9132234855L215.83248613123493,297.1109399076L218.11680982380864,296.999985L220.5553910071165,295.8487297626L222.91848448219272,296.9655025554L225.36034773977153,296.8804899273L227.72344121484778,297.26221167675L230.16530447242658,296.3349825912L232.60716773000536,297.4400470797L234.9702612050816,297.14950418655L237.41540653693136,297.2344973412L239.77850001200758,297.20046534495L242.2203632695864,297.17233342485L244.6622265271652,296.88721336425L246.86778043723635,297.7460104386L249.30636162054415,297.20229920145L251.66945509562044,296.0225550891L254.11131835319924,296.85678848745L256.47441182827544,297.47277618345L258.91627508585424,297.26819495985L261.35813834343304,297.4774213641L263.7212318185093,296.70605551635L266.16637715035904,297.7595220315L268.5294706254353,297.7076488119L270.9713338830141,296.4095619036L273.41319714059284,295.54567171275L275.618751050664,297.54616998045L278.05733223397186,296.73635329455L280.4204257090481,297.37716383985L282.8622889666269,296.56103024985L285.2253824417032,296.6733832644L287.667245699282,295.9699602114L290.1091089568607,295.68299873655L292.472202431937,296.49528284025L294.9173477637867,296.9533868184L297.280441238863,295.97460551145L299.7223044964417,295.52080788345L302.1641677540205,296.4692199054L304.36972166409174,295.65655293975L306.80830284739955,296.0359669929L309.1713963224758,296.48260059765L311.6132595800546,296.1936889872L313.9763530551308,296.98073710275L316.4182163127096,296.8945017894L318.8600795702884,294.77564933865L321.22317304536466,296.61601751715L323.6683183772144,295.49669416425L326.03141185229066,295.42121047935L328.47327510986946,296.48544907005L330.9151383674482,295.4024589879L333.199462060022,295.4359183515L335.6380432433298,296.76916959375L338.00113671840603,296.5893034059L340.44299997598483,295.94306175375L342.8060934510611,296.2578721593L345.2479567086399,296.4257752665L347.6898199662187,295.5050407758L350.0529134412949,295.72609999515L352.49805877314463,296.07476635515L354.8611522482209,295.4810770101L357.30301550579964,294.91371349425L359.74487876337844,295.6287337899L361.9504326734496,294.9142543281L364.38901385675746,295.11241446735L366.7521073318337,295.59464730825L369.1939705894125,294.3720541221L371.55706406448877,296.71031256105L373.9989273220675,295.66985310495L376.4407905796463,295.20827203575L378.80388405472263,295.6882339515L381.2490293865723,295.6338777819L383.6121228616486,295.4631036909L386.0539861192274,296.1279219849L388.4958493768062,295.9258579557L390.70140328687734,295.3625915721L393.13998447018514,295.7538233736L395.5030779452614,295.10336164875L397.9449412028402,294.90756116475L400.30803467791645,296.31089812875L402.74989793549526,296.72162199585L405.19176119307406,295.18477920465L407.55485466815026,295.9184290488L410,295.57893522825" data-legend="digital-ocean" style="stroke: rgb(214, 39, 40); fill: none;"></path></g></g><g transform="translate(20, 150)"><text transform="rotate(-90)" x="-50" y="0" dy="1em" class="axis-label y-axis-label" style="text-anchor: middle; font-weight: bold;">% of Stack Overflow questions that month</text></g><g class="legend" transform="translate(530, 30)" style="font-size: 12px;"><text class="legend-title" style="font-weight: bold;">Tag</text><g class="legend-items" transform="translate(0,20)"><text y="0em" x="1em">amazon-web-services</text><text y="1em" x="1em">azure</text><text y="2em" x="1em">google-cloud-platform</text><text y="3em" x="1em">digital-ocean</text><circle cy="-0.25em" cx="0" r="0.4em" style="fill: rgb(255, 127, 14);"></circle><circle cy="0.75em" cx="0" r="0.4em" style="fill: rgb(31, 119, 180);"></circle><circle cy="1.75em" cx="0" r="0.4em" style="fill: rgb(44, 160, 44);"></circle><circle cy="2.75em" cx="0" r="0.4em" style="fill: rgb(214, 39, 40);"></circle></g><rect class="legend-box"></rect></g></svg>
        